<mxfile host="app.diagrams.net" agent="Mozilla/5.0 (Macintosh; Intel Mac OS X 10_15_7) AppleWebKit/537.36 (KHTML, like Gecko) Chrome/130.0.0.0 Safari/537.36" version="24.8.4">
  <diagram name="Страница — 1" id="MrS0RHliC1d-RlNWmhaS">
    <mxGraphModel dx="1199" dy="700" grid="1" gridSize="10" guides="1" tooltips="1" connect="1" arrows="1" fold="1" page="1" pageScale="1" pageWidth="827" pageHeight="1169" math="0" shadow="0">
      <root>
        <mxCell id="0" />
        <mxCell id="1" parent="0" />
        <mxCell id="U-0y3FWfWh0V_Sc6EMZK-1" value="Trader" style="shape=umlActor;verticalLabelPosition=bottom;verticalAlign=top;html=1;outlineConnect=0;" vertex="1" parent="1">
          <mxGeometry x="720" y="250" width="30" height="60" as="geometry" />
        </mxCell>
        <mxCell id="U-0y3FWfWh0V_Sc6EMZK-5" value="Liquidity&lt;div&gt;Provider&lt;/div&gt;&lt;div&gt;&lt;br&gt;&lt;/div&gt;" style="shape=umlActor;verticalLabelPosition=bottom;verticalAlign=top;html=1;outlineConnect=0;" vertex="1" parent="1">
          <mxGeometry x="730" y="470" width="30" height="60" as="geometry" />
        </mxCell>
        <mxCell id="U-0y3FWfWh0V_Sc6EMZK-6" value="Liquidator" style="shape=umlActor;verticalLabelPosition=bottom;verticalAlign=top;html=1;outlineConnect=0;" vertex="1" parent="1">
          <mxGeometry x="100" y="330" width="30" height="60" as="geometry" />
        </mxCell>
        <mxCell id="U-0y3FWfWh0V_Sc6EMZK-7" value="Settler" style="shape=umlActor;verticalLabelPosition=bottom;verticalAlign=top;html=1;outlineConnect=0;" vertex="1" parent="1">
          <mxGeometry x="100" y="190" width="30" height="60" as="geometry" />
        </mxCell>
        <mxCell id="U-0y3FWfWh0V_Sc6EMZK-12" value="" style="rounded=0;orthogonalLoop=1;jettySize=auto;html=1;dashed=1;" edge="1" parent="1" source="U-0y3FWfWh0V_Sc6EMZK-10" target="U-0y3FWfWh0V_Sc6EMZK-11">
          <mxGeometry relative="1" as="geometry" />
        </mxCell>
        <mxCell id="U-0y3FWfWh0V_Sc6EMZK-14" value="&quot;include&quot;" style="edgeLabel;html=1;align=center;verticalAlign=middle;resizable=0;points=[];" vertex="1" connectable="0" parent="U-0y3FWfWh0V_Sc6EMZK-12">
          <mxGeometry x="-0.1724" y="-2" relative="1" as="geometry">
            <mxPoint as="offset" />
          </mxGeometry>
        </mxCell>
        <mxCell id="U-0y3FWfWh0V_Sc6EMZK-16" value="" style="rounded=0;orthogonalLoop=1;jettySize=auto;html=1;dashed=1;" edge="1" parent="1" source="U-0y3FWfWh0V_Sc6EMZK-10" target="U-0y3FWfWh0V_Sc6EMZK-15">
          <mxGeometry relative="1" as="geometry" />
        </mxCell>
        <mxCell id="U-0y3FWfWh0V_Sc6EMZK-17" value="&quot;include&quot;" style="edgeLabel;html=1;align=center;verticalAlign=middle;resizable=0;points=[];" vertex="1" connectable="0" parent="U-0y3FWfWh0V_Sc6EMZK-16">
          <mxGeometry x="-0.0132" y="2" relative="1" as="geometry">
            <mxPoint as="offset" />
          </mxGeometry>
        </mxCell>
        <mxCell id="U-0y3FWfWh0V_Sc6EMZK-32" style="edgeStyle=none;shape=connector;rounded=0;orthogonalLoop=1;jettySize=auto;html=1;strokeColor=default;align=center;verticalAlign=middle;fontFamily=Helvetica;fontSize=11;fontColor=default;labelBackgroundColor=default;endArrow=none;endFill=0;" edge="1" parent="1" source="U-0y3FWfWh0V_Sc6EMZK-10" target="U-0y3FWfWh0V_Sc6EMZK-5">
          <mxGeometry relative="1" as="geometry" />
        </mxCell>
        <mxCell id="U-0y3FWfWh0V_Sc6EMZK-10" value="Provide liquidity" style="ellipse;whiteSpace=wrap;html=1;" vertex="1" parent="1">
          <mxGeometry x="540" y="460" width="120" height="80" as="geometry" />
        </mxCell>
        <mxCell id="U-0y3FWfWh0V_Sc6EMZK-11" value="Supply collateral" style="ellipse;whiteSpace=wrap;html=1;" vertex="1" parent="1">
          <mxGeometry x="360" y="530" width="120" height="80" as="geometry" />
        </mxCell>
        <mxCell id="U-0y3FWfWh0V_Sc6EMZK-15" value="Borrow XUSD" style="ellipse;whiteSpace=wrap;html=1;" vertex="1" parent="1">
          <mxGeometry x="360" y="390" width="120" height="80" as="geometry" />
        </mxCell>
        <mxCell id="U-0y3FWfWh0V_Sc6EMZK-30" style="rounded=0;orthogonalLoop=1;jettySize=auto;html=1;exitX=0.583;exitY=0.375;exitDx=0;exitDy=0;endArrow=none;endFill=0;exitPerimeter=0;" edge="1" parent="1" source="U-0y3FWfWh0V_Sc6EMZK-19" target="U-0y3FWfWh0V_Sc6EMZK-1">
          <mxGeometry relative="1" as="geometry" />
        </mxCell>
        <mxCell id="U-0y3FWfWh0V_Sc6EMZK-19" value="Trade synthetic assets" style="ellipse;whiteSpace=wrap;html=1;" vertex="1" parent="1">
          <mxGeometry x="500" y="180" width="120" height="80" as="geometry" />
        </mxCell>
        <mxCell id="U-0y3FWfWh0V_Sc6EMZK-31" style="shape=connector;rounded=0;orthogonalLoop=1;jettySize=auto;html=1;strokeColor=default;align=center;verticalAlign=middle;fontFamily=Helvetica;fontSize=11;fontColor=default;labelBackgroundColor=default;endArrow=none;endFill=0;" edge="1" parent="1" source="U-0y3FWfWh0V_Sc6EMZK-21" target="U-0y3FWfWh0V_Sc6EMZK-1">
          <mxGeometry relative="1" as="geometry">
            <mxPoint x="660" y="190" as="targetPoint" />
          </mxGeometry>
        </mxCell>
        <mxCell id="U-0y3FWfWh0V_Sc6EMZK-21" value="Trade perpetuals with leverage" style="ellipse;whiteSpace=wrap;html=1;" vertex="1" parent="1">
          <mxGeometry x="500" y="320" width="120" height="80" as="geometry" />
        </mxCell>
        <mxCell id="U-0y3FWfWh0V_Sc6EMZK-35" style="edgeStyle=none;shape=connector;rounded=0;orthogonalLoop=1;jettySize=auto;html=1;strokeColor=default;align=center;verticalAlign=middle;fontFamily=Helvetica;fontSize=11;fontColor=default;labelBackgroundColor=default;endArrow=none;endFill=0;" edge="1" parent="1" source="U-0y3FWfWh0V_Sc6EMZK-24" target="U-0y3FWfWh0V_Sc6EMZK-7">
          <mxGeometry relative="1" as="geometry" />
        </mxCell>
        <mxCell id="U-0y3FWfWh0V_Sc6EMZK-24" value="Settle synthetic assets trades" style="ellipse;whiteSpace=wrap;html=1;" vertex="1" parent="1">
          <mxGeometry x="220" y="180" width="120" height="80" as="geometry" />
        </mxCell>
        <mxCell id="U-0y3FWfWh0V_Sc6EMZK-25" value="Admin" style="shape=umlActor;verticalLabelPosition=bottom;verticalAlign=top;html=1;outlineConnect=0;" vertex="1" parent="1">
          <mxGeometry x="100" y="470" width="30" height="60" as="geometry" />
        </mxCell>
        <mxCell id="U-0y3FWfWh0V_Sc6EMZK-33" style="edgeStyle=none;shape=connector;rounded=0;orthogonalLoop=1;jettySize=auto;html=1;strokeColor=default;align=center;verticalAlign=middle;fontFamily=Helvetica;fontSize=11;fontColor=default;labelBackgroundColor=default;endArrow=none;endFill=0;" edge="1" parent="1" source="U-0y3FWfWh0V_Sc6EMZK-26" target="U-0y3FWfWh0V_Sc6EMZK-25">
          <mxGeometry relative="1" as="geometry" />
        </mxCell>
        <mxCell id="U-0y3FWfWh0V_Sc6EMZK-26" value="Set configuration" style="ellipse;whiteSpace=wrap;html=1;" vertex="1" parent="1">
          <mxGeometry x="220" y="460" width="120" height="80" as="geometry" />
        </mxCell>
        <mxCell id="U-0y3FWfWh0V_Sc6EMZK-34" style="edgeStyle=none;shape=connector;rounded=0;orthogonalLoop=1;jettySize=auto;html=1;strokeColor=default;align=center;verticalAlign=middle;fontFamily=Helvetica;fontSize=11;fontColor=default;labelBackgroundColor=default;endArrow=none;endFill=0;" edge="1" parent="1" source="U-0y3FWfWh0V_Sc6EMZK-27" target="U-0y3FWfWh0V_Sc6EMZK-6">
          <mxGeometry relative="1" as="geometry" />
        </mxCell>
        <mxCell id="U-0y3FWfWh0V_Sc6EMZK-27" value="Liquidate n&lt;span style=&quot;background-color: initial;&quot;&gt;on-healthy liquidity provider&lt;/span&gt;&amp;nbsp;" style="ellipse;whiteSpace=wrap;html=1;" vertex="1" parent="1">
          <mxGeometry x="220" y="320" width="120" height="80" as="geometry" />
        </mxCell>
        <mxCell id="U-0y3FWfWh0V_Sc6EMZK-39" value="" style="rounded=0;whiteSpace=wrap;html=1;fontFamily=Helvetica;fontSize=11;fontColor=default;labelBackgroundColor=default;fillColor=none;strokeWidth=1;" vertex="1" parent="1">
          <mxGeometry x="180" y="160" width="510" height="460" as="geometry" />
        </mxCell>
      </root>
    </mxGraphModel>
  </diagram>
</mxfile>
